<?xml version="1.0" standalone="no"?>
<!DOCTYPE svg PUBLIC "-//W3C//DTD SVG 20010904//EN"
 "http://www.w3.org/TR/2001/REC-SVG-20010904/DTD/svg10.dtd">
<svg version="1.0" xmlns="http://www.w3.org/2000/svg"
 width="16.000000pt" height="16.000000pt" viewBox="0 0 16.000000 16.000000"
 preserveAspectRatio="xMidYMid meet">
<metadata>
Created by potrace 1.11, written by Peter Selinger 2001-2013
</metadata>
<g transform="translate(0.000000,16.000000) scale(0.003678,-0.003678)"
fill="#000000" stroke="none">
<path d="M964 4335 c-131 -30 -228 -132 -252 -263 -6 -32 -9 -468 -8 -1090 l2
-1037 23 -58 c31 -79 109 -157 188 -188 l58 -23 1065 0 1065 0 58 23 c102 40
185 142 206 254 14 75 10 2082 -4 2137 -33 127 -124 216 -249 245 -74 17
-2078 17 -2152 0z m2119 -87 c99 -21 174 -95 195 -191 14 -67 14 -2027 0
-2093 -21 -96 -95 -170 -193 -191 -60 -13 -2051 -11 -2105 2 -86 20 -158 99
-178 195 -15 75 -16 2001 0 2080 19 99 94 177 189 198 65 14 2027 14 2092 0z"/>
<path d="M1750 3554 c-297 -188 -310 -197 -310 -216 1 -44 -13 -43 596 -43
601 0 604 0 604 40 0 19 -31 41 -310 217 -259 163 -284 178 -297 177 -4 0
-132 -79 -283 -175z m478 -31 c103 -64 197 -124 210 -134 22 -17 5 -18 -399
-18 -231 0 -418 3 -415 7 7 7 409 261 414 262 2 0 88 -53 190 -117z"/>
<path d="M1450 3215 c-19 -23 -7 -49 28 -60 l32 -9 0 -313 c0 -302 -1 -313
-19 -313 -34 0 -51 -11 -51 -34 0 -36 27 -42 175 -40 182 2 172 1 178 26 8 28
-9 48 -39 48 -28 0 -25 -36 -24 360 0 145 3 266 5 268 3 3 27 9 46 11 14 2 19
33 9 52 -10 18 -23 19 -169 19 -126 0 -161 -3 -171 -15z m200 -381 l0 -314
-30 0 c-35 0 -31 -43 -30 365 0 173 4 261 11 266 6 4 20 4 30 2 18 -5 19 -20
19 -319z"/>
<path d="M1870 3215 c-19 -23 -7 -49 28 -59 l32 -9 0 -313 0 -314 -24 0 c-30
0 -50 -23 -41 -50 3 -11 9 -21 13 -21 21 -4 291 -5 309 -2 47 10 36 73 -13 73
l-24 0 0 314 0 314 30 7 c33 7 48 38 30 60 -18 22 -322 22 -340 0z m200 -381
l0 -314 -30 0 -30 0 0 314 c0 328 0 329 43 318 16 -4 17 -28 17 -318z"/>
<path d="M2290 3215 c-18 -22 -3 -53 30 -60 l30 -7 0 -314 0 -314 -24 0 c-13
0 -29 -7 -36 -15 -13 -16 -5 -54 13 -56 40 -4 286 -5 304 -2 47 10 36 73 -13
73 l-24 0 0 314 0 314 29 5 c33 7 49 40 31 62 -10 12 -44 15 -170 15 -126 0
-160 -3 -170 -15z m200 -381 l0 -314 -30 0 -30 0 0 314 0 315 23 3 c12 2 25 2
30 0 4 -2 7 -145 7 -318z"/>
<path d="M1382 2368 c-18 -18 -14 -46 7 -58 26 -13 1261 -13 1296 0 27 10 33
38 13 58 -17 17 -1299 17 -1316 0z"/>
<path d="M910 940 c-12 -7 -15 -42 -16 -187 -1 -98 -3 -184 -3 -191 -1 -8 -15
0 -33 19 -83 83 -235 107 -341 55 -68 -33 -120 -85 -155 -155 -23 -49 -27 -68
-27 -146 1 -70 6 -100 23 -137 25 -57 94 -129 151 -157 113 -58 262 -34 357
57 26 25 34 20 27 -18 -8 -56 43 -97 65 -52 5 9 8 216 8 460 -1 382 -3 444
-16 452 -19 12 -21 12 -40 0z m-152 -374 c111 -57 165 -214 114 -329 -86 -193
-317 -209 -440 -32 -31 45 -33 54 -31 119 3 107 41 181 118 232 66 43 167 47
239 10z"/>
<path d="M2082 938 c-16 -16 -17 -913 -1 -923 5 -4 21 -4 35 -1 23 6 24 10 24
91 l0 84 64 66 65 66 98 -118 c53 -65 103 -124 111 -132 7 -8 20 -25 29 -38
11 -17 23 -23 42 -21 40 5 38 38 -4 89 -20 24 -44 53 -53 64 -10 11 -37 45
-62 75 -25 30 -57 69 -72 85 -16 17 -28 36 -28 43 0 7 57 69 126 138 96 95
125 130 122 147 -2 14 -11 23 -24 25 -17 2 -68 -42 -214 -187 -105 -105 -193
-191 -196 -191 -2 0 -4 142 -4 315 0 300 -1 315 -19 325 -24 13 -24 13 -39 -2z"/>
<path d="M3207 938 c-16 -12 -17 -49 -15 -468 l3 -455 24 -3 c13 -2 27 0 32 5
5 5 10 46 10 92 l1 83 66 63 65 63 126 -154 c107 -130 130 -153 151 -151 17 1
26 9 28 24 3 20 -41 78 -229 301 -10 12 -19 26 -19 31 0 5 57 65 126 135 96
97 125 131 122 149 -2 13 -11 23 -24 25 -16 2 -69 -44 -213 -187 -105 -105
-193 -191 -196 -191 -2 0 -4 140 -5 312 0 340 -4 362 -53 326z"/>
<path d="M2827 873 c-3 -5 -7 -23 -9 -42 -4 -41 21 -63 50 -45 21 13 28 60 11
80 -12 15 -45 19 -52 7z"/>
<path d="M3944 866 c-3 -8 -4 -29 -2 -48 2 -26 8 -34 27 -36 13 -2 28 2 32 10
13 19 11 62 -3 76 -16 16 -47 15 -54 -2z"/>
<path d="M1252 661 c-17 -10 -19 -396 -3 -458 40 -150 222 -235 362 -171 67
30 115 78 142 137 17 41 20 71 22 259 2 175 0 215 -12 227 -17 17 -23 18 -42
6 -12 -8 -15 -48 -17 -218 -2 -222 -7 -248 -52 -296 -79 -84 -215 -86 -288 -5
-51 55 -54 73 -54 297 0 198 -1 211 -19 221 -23 12 -23 12 -39 1z"/>
<path d="M2823 640 c-10 -37 -9 -603 1 -619 9 -15 39 -14 54 1 15 15 17 605 3
627 -5 8 -19 16 -30 18 -16 2 -22 -4 -28 -27z"/>
<path d="M3950 655 c-9 -10 -12 -94 -11 -320 0 -168 3 -310 6 -315 8 -14 39
-12 53 2 9 9 12 94 12 320 0 294 -1 308 -19 318 -25 13 -26 13 -41 -5z"/>
</g>
</svg>
